<svg width="23" height="23" viewBox="0 0 23 23" fill="none" xmlns="http://www.w3.org/2000/svg">
<path d="M22 14L18.4545 10.4545H10.1818C9.86838 10.4545 9.56778 10.33 9.34615 10.1084C9.12451 9.88676 9 9.58616 9 9.27273V2.18182C9 1.86838 9.12451 1.56778 9.34615 1.34615C9.56778 1.12451 9.86838 1 10.1818 1H20.8182C21.1316 1 21.4322 1.12451 21.6539 1.34615C21.8755 1.56778 22 1.86838 22 2.18182V14Z" stroke="#0C1424" stroke-width="1.16" stroke-linecap="round" stroke-linejoin="round"/>
<path d="M14 14.9091V17.2727C14 17.5862 13.8755 17.8868 13.6539 18.1084C13.4322 18.33 13.1316 18.4545 12.8182 18.4545H4.54545L1 22V10.1818C1 9.86838 1.12451 9.56778 1.34615 9.34615C1.56778 9.12451 1.86838 9 2.18182 9H4.54545" stroke="#0C1424" stroke-width="1.16" stroke-linecap="round" stroke-linejoin="round"/>
</svg>
