<svg width="23" height="23" viewBox="0 0 23 23" fill="none" xmlns="http://www.w3.org/2000/svg">
<path d="M3.82771 11.4633H1.51465L11.9234 1.05457L22.3322 11.4633H20.0191" stroke="#0C1424" stroke-width="1.15653" stroke-linecap="round" stroke-linejoin="round"/>
<path d="M3.82715 11.4634V19.5591C3.82715 20.1725 4.07084 20.7609 4.50463 21.1947C4.93841 21.6285 5.52675 21.8721 6.14021 21.8721H17.7055C18.319 21.8721 18.9073 21.6285 19.3411 21.1947C19.7749 20.7609 20.0186 20.1725 20.0186 19.5591V11.4634" stroke="#0C1424" stroke-width="1.15653" stroke-linecap="round" stroke-linejoin="round"/>
<path d="M8.45312 21.8721V14.9329C8.45312 14.3195 8.69682 13.7311 9.1306 13.2974C9.56439 12.8636 10.1527 12.6199 10.7662 12.6199H13.0792C13.6927 12.6199 14.281 12.8636 14.7148 13.2974C15.1486 13.7311 15.3923 14.3195 15.3923 14.9329V21.8721" stroke="#0C1424" stroke-width="1.15653" stroke-linecap="round" stroke-linejoin="round"/>
</svg>
