<svg width="22" height="22" viewBox="0 0 22 22" fill="none" xmlns="http://www.w3.org/2000/svg">
<path d="M6.45355 5.64746H2.98396C2.3705 5.64746 1.78216 5.89116 1.34838 6.32494C0.914595 6.75872 0.670898 7.34706 0.670898 7.96052V18.3693C0.670898 18.9828 0.914595 19.5711 1.34838 20.0049C1.78216 20.4387 2.3705 20.6823 2.98396 20.6823H13.3927C14.0062 20.6823 14.5945 20.4387 15.0283 20.0049C15.4621 19.5711 15.7058 18.9828 15.7058 18.3693V14.8997" stroke="#0C1424" stroke-width="1.15653" stroke-linecap="round" stroke-linejoin="round"/>
<path d="M6.4541 14.8997H9.92369L19.7542 5.06915C20.2143 4.60905 20.4728 3.98503 20.4728 3.33435C20.4728 2.68368 20.2143 2.05965 19.7542 1.59956C19.2941 1.13946 18.6701 0.880981 18.0194 0.880981C17.3687 0.880981 16.7447 1.13946 16.2846 1.59956L6.4541 11.4301V14.8997Z" stroke="#0C1424" stroke-width="1.15653" stroke-linecap="round" stroke-linejoin="round"/>
<path d="M14.5498 3.33435L18.0194 6.80394" stroke="#0C1424" stroke-width="1.15653" stroke-linecap="round" stroke-linejoin="round"/>
</svg>
