<svg width="20" height="22" viewBox="0 0 20 22" fill="none" xmlns="http://www.w3.org/2000/svg">
<path d="M9.92299 1.27136L5.29688 9.36707H14.5491L9.92299 1.27136Z" stroke="#0C1424" stroke-width="1.15653" stroke-linecap="round" stroke-linejoin="round"/>
<path d="M15.7059 20.9323C17.6221 20.9323 19.1755 19.379 19.1755 17.4628C19.1755 15.5466 17.6221 13.9932 15.7059 13.9932C13.7897 13.9932 12.2363 15.5466 12.2363 17.4628C12.2363 19.379 13.7897 20.9323 15.7059 20.9323Z" stroke="#0C1424" stroke-width="1.15653" stroke-linecap="round" stroke-linejoin="round"/>
<path d="M6.45355 13.9932H1.82743C1.18869 13.9932 0.670898 14.511 0.670898 15.1497V19.7758C0.670898 20.4145 1.18869 20.9323 1.82743 20.9323H6.45355C7.09228 20.9323 7.61008 20.4145 7.61008 19.7758V15.1497C7.61008 14.511 7.09228 13.9932 6.45355 13.9932Z" stroke="#0C1424" stroke-width="1.15653" stroke-linecap="round" stroke-linejoin="round"/>
</svg>
