<svg width="16" height="15" viewBox="0 0 16 15" fill="none" xmlns="http://www.w3.org/2000/svg">
<path d="M2.55957 4.375H12.5596" stroke="#E62336" stroke-linecap="round" stroke-linejoin="round"/>
<path d="M6.30957 6.875V10.625" stroke="#E62336" stroke-linecap="round" stroke-linejoin="round"/>
<path d="M8.80957 6.875V10.625" stroke="#E62336" stroke-linecap="round" stroke-linejoin="round"/>
<path d="M3.18457 4.73291L3.80957 12.2329C3.80957 12.5644 3.94127 12.8824 4.17569 13.1168C4.41011 13.3512 4.72805 13.4829 5.05957 13.4829H10.0596C10.3911 13.4829 10.709 13.3512 10.9435 13.1168C11.1779 12.8824 11.3096 12.5644 11.3096 12.2329L11.9346 4.73291" stroke="#E62336" stroke-linecap="round" stroke-linejoin="round"/>
<path d="M5.68457 4.01709V2.14209C5.68457 1.97633 5.75042 1.81736 5.86763 1.70015C5.98484 1.58294 6.14381 1.51709 6.30957 1.51709H8.80957C8.97533 1.51709 9.1343 1.58294 9.25151 1.70015C9.36872 1.81736 9.43457 1.97633 9.43457 2.14209V4.01709" stroke="#E62336" stroke-linecap="round" stroke-linejoin="round"/>
</svg>
