<svg width="17" height="17" viewBox="0 0 17 17" fill="none" xmlns="http://www.w3.org/2000/svg">
<path d="M4.63097 7.26267V14.7604C4.63097 15.009 4.53801 15.2474 4.37254 15.4231C4.20707 15.5989 3.98264 15.6976 3.74862 15.6976H1.98392C1.7499 15.6976 1.52547 15.5989 1.36 15.4231C1.19452 15.2474 1.10156 15.009 1.10156 14.7604V8.19989C1.10156 7.95133 1.19452 7.71294 1.36 7.53718C1.52547 7.36142 1.7499 7.26267 1.98392 7.26267H4.63097ZM4.63097 7.26267C5.56703 7.26267 6.46475 6.8677 7.12665 6.16465C7.78854 5.46161 8.16039 4.50806 8.16039 3.5138V2.57658C8.16039 2.07945 8.34631 1.60268 8.67726 1.25116C9.0082 0.899633 9.45706 0.702148 9.92509 0.702148C10.3931 0.702148 10.842 0.899633 11.1729 1.25116C11.5039 1.60268 11.6898 2.07945 11.6898 2.57658V7.26267H14.3369C14.8049 7.26267 15.2537 7.46016 15.5847 7.81168C15.9156 8.16321 16.1016 8.63998 16.1016 9.13711L15.2192 13.8232C15.0923 14.3982 14.8516 14.8919 14.5333 15.2299C14.215 15.568 13.8364 15.7321 13.4545 15.6976H7.27803C6.57599 15.6976 5.9027 15.4014 5.40628 14.8741C4.90986 14.3468 4.63097 13.6317 4.63097 12.886" stroke="#54BBAB" stroke-linecap="round" stroke-linejoin="round"/>
</svg>
