<?xml version="1.0" encoding="utf-8"?>
<!-- Generator: Adobe Illustrator 25.1.0, SVG Export Plug-In . SVG Version: 6.00 Build 0)  -->
<svg version="1.1" id="Layer_1" xmlns="http://www.w3.org/2000/svg" xmlns:xlink="http://www.w3.org/1999/xlink" x="0px" y="0px"
	 viewBox="0 0 17 17" style="enable-background:new 0 0 17 17;" xml:space="preserve">
<style type="text/css">
	.st0{fill:#54BBAB;}
</style>
<path class="st0" d="M2,6.8c-0.4,0-0.7,0.2-1,0.4c-0.3,0.3-0.4,0.6-0.4,1v6.6c0,0.4,0.1,0.7,0.4,1c0.3,0.3,0.6,0.4,1,0.4h1.8
	c0.3,0,0.5,0,0.7-0.2c0.2-0.1,0.1-0.4,0.1-0.4V7.2c0-0.2-0.2-0.4-0.4-0.4H2z"/>
<path class="st0" d="M15.9,7.5c-0.4-0.4-1-0.7-1.6-0.7h-2.1V2.6c0-0.9-0.4-1.6-1.2-2.1c-0.7-0.4-1.6-0.4-2.2,0
	C8.1,1,7.7,1.7,7.7,2.6v0.9c0,0.9-0.3,1.7-0.9,2.3C6.5,6.1,6.2,6.3,5.9,6.5C5.7,6.6,5.6,6.8,5.6,7v8.2c0,0.3,0.2,0.5,0.4,0.6
	c0.4,0.2,0.9,0.3,1.3,0.3l6.1,0c0,0,0.1,0,0.1,0c0.5,0,1-0.2,1.3-0.6c0.4-0.4,0.7-1,0.8-1.7l0.9-4.8C16.6,8.5,16.4,7.9,15.9,7.5z"/>
</svg>
