<svg width="16" height="18" viewBox="0 0 16 18" fill="none" xmlns="http://www.w3.org/2000/svg">
<path d="M8.30992 10.102C9.73344 10.102 10.8874 8.94804 10.8874 7.52452C10.8874 6.10101 9.73344 4.94702 8.30992 4.94702C6.88641 4.94702 5.73242 6.10101 5.73242 7.52452C5.73242 8.94804 6.88641 10.102 8.30992 10.102Z" stroke="#54BBAB" stroke-width="1.28875" stroke-linecap="round" stroke-linejoin="round"/>
<path d="M13.1711 12.3848L9.5257 16.0302C9.2035 16.3521 8.7667 16.5329 8.31127 16.5329C7.85584 16.5329 7.41904 16.3521 7.09684 16.0302L3.45053 12.3848C2.48931 11.4235 1.83473 10.1988 1.56955 8.86549C1.30437 7.53221 1.4405 6.15023 1.96074 4.89431C2.48098 3.63839 3.36195 2.56494 4.49225 1.80971C5.62256 1.05447 6.95144 0.651367 8.31084 0.651367C9.67024 0.651367 10.9991 1.05447 12.1294 1.80971C13.2597 2.56494 14.1407 3.63839 14.6609 4.89431C15.1812 6.15023 15.3173 7.53221 15.0521 8.86549C14.7869 10.1988 14.1324 11.4235 13.1711 12.3848V12.3848Z" stroke="#54BBAB" stroke-width="1.28875" stroke-linecap="round" stroke-linejoin="round"/>
</svg>
