<svg width="16" height="16" viewBox="0 0 16 16" fill="none" xmlns="http://www.w3.org/2000/svg">
<path d="M2.44238 13.9318H4.94238L13.0674 5.80683C13.3989 5.47531 13.5852 5.02567 13.5852 4.55683C13.5852 4.08799 13.3989 3.63835 13.0674 3.30683C12.7359 2.97531 12.2862 2.78906 11.8174 2.78906C11.3485 2.78906 10.8989 2.97531 10.5674 3.30683L2.44238 11.4318V13.9318Z" stroke="white" stroke-width="0.8" stroke-linecap="round" stroke-linejoin="round"/>
<path d="M9.62891 4.24414L12.1289 6.74414" stroke="white" stroke-width="0.8" stroke-linecap="round" stroke-linejoin="round"/>
<path d="M8.06738 5.80664L4.94238 2.68164L2.44238 5.18164L5.56738 8.30664" stroke="white" stroke-width="0.8" stroke-linecap="round" stroke-linejoin="round"/>
<path d="M4.94141 5.80664L4.00391 6.74414" stroke="white" stroke-width="0.8" stroke-linecap="round" stroke-linejoin="round"/>
<path d="M10.5654 8.30664L13.6904 11.4316L11.1904 13.9316L8.06543 10.8066" stroke="white" stroke-width="0.8" stroke-linecap="round" stroke-linejoin="round"/>
<path d="M10.5664 11.4316L9.62891 12.3691" stroke="white" stroke-width="0.8" stroke-linecap="round" stroke-linejoin="round"/>
</svg>
