<?xml version="1.0" encoding="utf-8"?>
<!-- Generator: Adobe Illustrator 25.1.0, SVG Export Plug-In . SVG Version: 6.00 Build 0)  -->
<svg version="1.1" id="Layer_1" xmlns="http://www.w3.org/2000/svg" xmlns:xlink="http://www.w3.org/1999/xlink" x="0px" y="0px"
	 viewBox="0 0 20 20" style="enable-background:new 0 0 20 20;" xml:space="preserve">
<style type="text/css">
	.st0{fill:none;stroke:#E62336;stroke-width:1.1404;stroke-linecap:round;stroke-linejoin:round;}
</style>
<path class="st0" d="M1.7,18.3h3.7l12-12c0.5-0.5,0.8-1.2,0.8-1.8s-0.3-1.4-0.8-1.8c-0.5-0.5-1.2-0.8-1.8-0.8
	c-0.7,0-1.4,0.3-1.8,0.8l-12,12V18.3z"/>
<path class="st0" d="M12.3,4L16,7.7"/>
<path class="st0" d="M10,6.3L5.4,1.7L1.7,5.4L6.3,10"/>
<path class="st0" d="M5.4,6.3L4,7.7"/>
<path class="st0" d="M13.7,10l4.6,4.6l-3.7,3.7L10,13.7"/>
<path class="st0" d="M13.7,14.6L12.3,16"/>
</svg>
