<svg width="17" height="18" viewBox="0 0 17 18" fill="none" xmlns="http://www.w3.org/2000/svg">
<path d="M0.671143 17.2365H3.98609L14.7597 5.86442C15.1993 5.40041 15.4462 4.77108 15.4462 4.11487C15.4462 3.45866 15.1993 2.82932 14.7597 2.36531C14.3201 1.9013 13.7239 1.64063 13.1022 1.64062C12.4805 1.64062 11.8843 1.9013 11.4447 2.36531L0.671143 13.7374V17.2365Z" stroke="#E62336" stroke-width="1.14039" stroke-linecap="round" stroke-linejoin="round"/>
<path d="M10.1997 3.67725L13.5147 7.17635" stroke="#E62336" stroke-width="1.14039" stroke-linecap="round" stroke-linejoin="round"/>
<path d="M8.12977 5.86436L3.98609 1.49048L0.671143 4.98959L4.81482 9.36347" stroke="#E62336" stroke-width="1.14039" stroke-linecap="round" stroke-linejoin="round"/>
<path d="M3.98505 5.8645L2.74194 7.17667" stroke="#E62336" stroke-width="1.14039" stroke-linecap="round" stroke-linejoin="round"/>
<path d="M11.4414 9.36353L15.5851 13.7374L12.2701 17.2365L8.12646 12.8626" stroke="#E62336" stroke-width="1.14039" stroke-linecap="round" stroke-linejoin="round"/>
<path d="M11.4428 13.7375L10.1997 15.0497" stroke="#E62336" stroke-width="1.14039" stroke-linecap="round" stroke-linejoin="round"/>
</svg>
