<?xml version="1.0" encoding="utf-8"?>
<!-- Generator: Adobe Illustrator 25.1.0, SVG Export Plug-In . SVG Version: 6.00 Build 0)  -->
<svg version="1.1" id="Layer_1" xmlns="http://www.w3.org/2000/svg" xmlns:xlink="http://www.w3.org/1999/xlink" x="0px" y="0px"
	 viewBox="0 0 20 20" style="enable-background:new 0 0 20 20;" xml:space="preserve">
<style type="text/css">
	.st0{fill:none;stroke:#FFED00;stroke-width:1.2468;stroke-linecap:round;stroke-linejoin:round;}
</style>
<g>
	<path class="st0" d="M10,19.1c5,0,9.1-4.1,9.1-9.1c0-5-4.1-9.1-9.1-9.1C5,0.9,0.9,5,0.9,10C0.9,15,5,19.1,10,19.1z"/>
	<path class="st0" d="M13.5,6.6c-0.6-0.7-1.3-1.1-2-1.3c-0.8-0.2-1.6-0.1-2.3,0.3c-0.7,0.4-1.3,1-1.8,1.8C6.9,8.1,6.7,9.1,6.7,10
		c0,0.9,0.2,1.9,0.7,2.7c0.4,0.8,1.1,1.4,1.8,1.8c0.7,0.4,1.5,0.5,2.3,0.3c0.8-0.2,1.5-0.6,2-1.3"/>
	<path class="st0" d="M5.4,11.4h5.3 M10.7,8.6H5.4H10.7z"/>
</g>
</svg>
