<svg width="17" height="16" viewBox="0 0 17 16" fill="none" xmlns="http://www.w3.org/2000/svg">
<path d="M8.51758 15.5903C12.6597 15.5903 16.0176 12.2325 16.0176 8.09033C16.0176 3.9482 12.6597 0.590332 8.51758 0.590332C4.37544 0.590332 1.01758 3.9482 1.01758 8.09033C1.01758 12.2325 4.37544 15.5903 8.51758 15.5903Z" stroke="white" stroke-width="0.8" stroke-linecap="round" stroke-linejoin="round"/>
<path d="M11.3752 5.24916C10.9117 4.70105 10.3244 4.3303 9.68705 4.18339C9.04965 4.03649 8.3905 4.11996 7.79226 4.42336C7.19401 4.72676 6.6833 5.23656 6.32416 5.88886C5.96502 6.54115 5.77344 7.30689 5.77344 8.09007C5.77344 8.87324 5.96502 9.63898 6.32416 10.2913C6.6833 10.9436 7.19401 11.4534 7.79226 11.7568C8.3905 12.0602 9.04965 12.1436 9.68705 11.9967C10.3244 11.8498 10.9117 11.4791 11.3752 10.931" stroke="white" stroke-width="0.8" stroke-linecap="round" stroke-linejoin="round"/>
<path d="M4.67188 9.22634H9.06582M9.06582 6.95361H4.67188H9.06582Z" stroke="white" stroke-width="0.8" stroke-linecap="round" stroke-linejoin="round"/>
</svg>
