<svg width="35" height="34" viewBox="0 0 35 34" fill="none" xmlns="http://www.w3.org/2000/svg">
<path d="M24.4857 23.8819H27.2649C28.002 23.8819 28.7089 23.5891 29.2301 23.0679C29.7513 22.5467 30.0441 21.8398 30.0441 21.1027V15.5443C30.0441 14.8072 29.7513 14.1003 29.2301 13.5791C28.7089 13.0579 28.002 12.7651 27.2649 12.7651H7.81045C7.07336 12.7651 6.36646 13.0579 5.84526 13.5791C5.32406 14.1003 5.03125 14.8072 5.03125 15.5443V21.1027C5.03125 21.8398 5.32406 22.5467 5.84526 23.0679C6.36646 23.5891 7.07336 23.8819 7.81045 23.8819H10.5897" stroke="black" stroke-width="2.0844" stroke-linecap="round" stroke-linejoin="round"/>
<path d="M24.4859 12.7653V7.20694C24.4859 6.46985 24.193 5.76295 23.6718 5.24174C23.1506 4.72054 22.4437 4.42773 21.7067 4.42773H13.369C12.632 4.42773 11.9251 4.72054 11.4039 5.24174C10.8827 5.76295 10.5898 6.46985 10.5898 7.20694V12.7653" stroke="black" stroke-width="2.0844" stroke-linecap="round" stroke-linejoin="round"/>
<path d="M21.7067 18.3237H13.369C11.8341 18.3237 10.5898 19.568 10.5898 21.1029V26.6613C10.5898 28.1962 11.8341 29.4405 13.369 29.4405H21.7067C23.2416 29.4405 24.4859 28.1962 24.4859 26.6613V21.1029C24.4859 19.568 23.2416 18.3237 21.7067 18.3237Z" stroke="black" stroke-width="2.0844" stroke-linecap="round" stroke-linejoin="round"/>
</svg>
