<svg width="20" height="23" viewBox="0 0 20 23" fill="none" xmlns="http://www.w3.org/2000/svg">
<path d="M18.4825 15.9408C17.1132 14.7834 16.3289 13.0962 16.3289 11.3072V8.78475C16.3289 5.601 13.9633 2.96837 10.9025 2.52748V1.55243C10.9025 1.05218 10.4956 0.649447 9.99955 0.649447C9.50355 0.645208 9.09657 1.04795 9.09657 1.54819V2.52324C6.03152 2.96837 3.67021 5.601 3.67021 8.78475V11.3072C3.67021 13.0962 2.88593 14.7877 1.51239 15.9492C1.16052 16.2502 0.957031 16.6869 0.957031 17.149C0.957031 18.0223 1.665 18.7302 2.53831 18.7302H17.4608C18.3341 18.7302 19.0421 18.0223 19.0421 17.149C19.0463 16.6869 18.8428 16.2502 18.4825 15.9408Z" fill="#0C1424"/>
<path d="M9.99714 22.3506C11.6335 22.3506 13.0071 21.1848 13.3208 19.6375H6.67773C6.99145 21.1848 8.36075 22.3506 9.99714 22.3506Z" fill="#0C1424"/>
</svg>
