<svg width="15" height="16" viewBox="0 0 15 16" fill="none" xmlns="http://www.w3.org/2000/svg">
<g clip-path="url(#clip0)">
<path d="M4.99914 8.45899V3.45898C4.99914 3.21034 5.09791 2.97189 5.27373 2.79607C5.44955 2.62026 5.688 2.52148 5.93664 2.52148C6.18528 2.52148 6.42374 2.62026 6.59956 2.79607C6.77537 2.97189 6.87414 3.21034 6.87414 3.45898M6.87414 3.45898V7.52149M6.87414 3.45898V2.20898C6.87414 1.96034 6.97291 1.72189 7.14873 1.54607C7.32454 1.37026 7.563 1.27148 7.81164 1.27148C8.06028 1.27148 8.29874 1.37026 8.47456 1.54607C8.65037 1.72189 8.74914 1.96034 8.74914 2.20898V7.52149M9.02373 2.79607C9.19954 2.62026 9.438 2.52148 9.68664 2.52148C9.93528 2.52148 10.1737 2.62026 10.3496 2.79607C10.5254 2.97189 10.6241 3.21034 10.6241 3.45898V7.52149M10.6241 4.70899C10.6241 4.46034 10.7229 4.22189 10.8987 4.04607C11.0745 3.87026 11.313 3.77148 11.5616 3.77148C11.8103 3.77148 12.0487 3.87026 12.2246 4.04607C12.4004 4.22189 12.4991 4.46034 12.4991 4.70899V10.0215C12.4991 11.016 12.1041 11.9699 11.4008 12.6731C10.6975 13.3764 9.7437 13.7715 8.74914 13.7715H7.49914C6.8469 13.6815 6.2269 13.466 5.68568 13.1413C5.14446 12.8166 4.69607 12.391 4.37414 11.8965L2.68664 8.61524C2.52088 8.38732 2.45245 8.10288 2.49641 7.82451C2.54036 7.54613 2.6931 7.29662 2.92102 7.13086C3.14894 6.9651 3.43337 6.89667 3.71175 6.94062C3.99012 6.98458 4.23963 7.13732 4.40539 7.36524L4.96789 8.45899" stroke="white" stroke-width="0.8" stroke-linecap="round" stroke-linejoin="round"/>
</g>
<defs>
<clipPath id="clip0">
<rect width="15" height="15" fill="white" transform="translate(0 0.0214844)"/>
</clipPath>
</defs>
</svg>
