<?xml version="1.0" encoding="utf-8"?>
<!-- Generator: Adobe Illustrator 25.1.0, SVG Export Plug-In . SVG Version: 6.00 Build 0)  -->
<svg version="1.1" id="Layer_1" xmlns="http://www.w3.org/2000/svg" xmlns:xlink="http://www.w3.org/1999/xlink" x="0px" y="0px"
	 viewBox="0 0 20 20" style="enable-background:new 0 0 20 20;" xml:space="preserve">
<style type="text/css">
	.st0{fill:none;stroke:#54BBAB;stroke-width:1.032;stroke-linecap:round;stroke-linejoin:round;}
</style>
<g>
	<path class="st0" d="M6.7,11.2V4.6c0-0.3,0.1-0.6,0.4-0.9c0.2-0.2,0.6-0.4,0.9-0.4s0.6,0.1,0.9,0.4C9,3.9,9.2,4.3,9.2,4.6"/>
	<line class="st0" x1="9.2" y1="4.6" x2="9.2" y2="10"/>
	<path class="st0" d="M9.2,4.6V2.9c0-0.3,0.1-0.6,0.4-0.9c0.2-0.2,0.6-0.4,0.9-0.4s0.6,0.1,0.9,0.4c0.2,0.2,0.4,0.6,0.4,0.9V10"/>
	<path class="st0" d="M12,3.7c0.2-0.2,0.6-0.4,0.9-0.4s0.6,0.1,0.9,0.4c0.2,0.2,0.4,0.6,0.4,0.9V10"/>
	<path class="st0" d="M14.2,6.2c0-0.3,0.1-0.6,0.4-0.9C14.8,5.1,15.1,5,15.4,5s0.6,0.1,0.9,0.4c0.2,0.2,0.4,0.6,0.4,0.9v7.1
		c0,1.3-0.5,2.6-1.5,3.5c-0.9,0.9-2.2,1.5-3.5,1.5H10c-0.9-0.1-1.7-0.4-2.4-0.8s-1.3-1-1.7-1.7l-2.2-4.4c-0.2-0.3-0.3-0.7-0.3-1.1
		C3.4,10,3.6,9.7,3.9,9.5S4.6,9.2,5,9.2c0.4,0.1,0.7,0.3,0.9,0.6l0.8,1.5"/>
</g>
</svg>
