<svg width="21" height="21" viewBox="0 0 21 21" fill="none" xmlns="http://www.w3.org/2000/svg">
<path d="M7.13069 12.0745V5.40788C7.13069 5.07636 7.26239 4.75841 7.49681 4.52399C7.73123 4.28957 8.04917 4.15788 8.38069 4.15788C8.71221 4.15788 9.03016 4.28957 9.26458 4.52399C9.499 4.75841 9.63069 5.07636 9.63069 5.40788M9.63069 5.40788V10.8245M9.63069 5.40788V3.74121C9.63069 3.40969 9.76239 3.09175 9.99681 2.85733C10.2312 2.62291 10.5492 2.49121 10.8807 2.49121C11.2122 2.49121 11.5302 2.62291 11.7646 2.85733C11.999 3.09175 12.1307 3.40969 12.1307 3.74121V10.8245M12.4968 4.52399C12.7312 4.28957 13.0492 4.15788 13.3807 4.15788C13.7122 4.15788 14.0302 4.28957 14.2646 4.52399C14.499 4.75841 14.6307 5.07636 14.6307 5.40788V10.8245M14.6307 7.07454C14.6307 6.74302 14.7624 6.42508 14.9968 6.19066C15.2312 5.95624 15.5492 5.82454 15.8807 5.82454C16.2122 5.82454 16.5302 5.95624 16.7646 6.19066C16.999 6.42508 17.1307 6.74302 17.1307 7.07454V14.1579C17.1307 15.484 16.6039 16.7557 15.6662 17.6934C14.7285 18.6311 13.4568 19.1579 12.1307 19.1579H10.464C9.59437 19.0379 8.76771 18.7506 8.04608 18.3176C7.32445 17.8846 6.72659 17.3172 6.29736 16.6579L4.04736 12.2829C3.82635 11.979 3.73511 11.5997 3.79371 11.2286C3.85232 10.8574 4.05597 10.5247 4.35986 10.3037C4.66375 10.0827 5.043 9.99146 5.41416 10.0501C5.78533 10.1087 6.11801 10.3123 6.33903 10.6162L7.08903 12.0745" stroke="#54BBAB" stroke-width="1.03204" stroke-linecap="round" stroke-linejoin="round"/>
</svg>
