<svg width="25" height="26" viewBox="0 0 25 26" fill="none" xmlns="http://www.w3.org/2000/svg">
<path d="M6.25 15.9263C7.97589 15.9263 9.375 14.5272 9.375 12.8013C9.375 11.0754 7.97589 9.67627 6.25 9.67627C4.52411 9.67627 3.125 11.0754 3.125 12.8013C3.125 14.5272 4.52411 15.9263 6.25 15.9263Z" stroke="#54BBAB" stroke-width="1.66667" stroke-linecap="round" stroke-linejoin="round"/>
<path d="M18.75 9.67627C20.4759 9.67627 21.875 8.27716 21.875 6.55127C21.875 4.82538 20.4759 3.42627 18.75 3.42627C17.0241 3.42627 15.625 4.82538 15.625 6.55127C15.625 8.27716 17.0241 9.67627 18.75 9.67627Z" stroke="#54BBAB" stroke-width="1.66667" stroke-linecap="round" stroke-linejoin="round"/>
<path d="M18.75 22.1763C20.4759 22.1763 21.875 20.7772 21.875 19.0513C21.875 17.3254 20.4759 15.9263 18.75 15.9263C17.0241 15.9263 15.625 17.3254 15.625 19.0513C15.625 20.7772 17.0241 22.1763 18.75 22.1763Z" stroke="#54BBAB" stroke-width="1.66667" stroke-linecap="round" stroke-linejoin="round"/>
<path d="M9.06226 11.4469L15.9373 7.90527" stroke="#54BBAB" stroke-width="1.66667" stroke-linecap="round" stroke-linejoin="round"/>
<path d="M9.06226 14.1553L15.9373 17.6969" stroke="#54BBAB" stroke-width="1.66667" stroke-linecap="round" stroke-linejoin="round"/>
</svg>
