<svg width="14" height="18" viewBox="0 0 14 18" fill="none" xmlns="http://www.w3.org/2000/svg">
<path d="M4.46445 10.5121V4.17879C4.46445 3.86385 4.58298 3.5618 4.79395 3.3391C5.00493 3.1164 5.29108 2.99129 5.58945 2.99129C5.88782 2.99129 6.17397 3.1164 6.38495 3.3391C6.59592 3.5618 6.71445 3.86385 6.71445 4.17879M6.71445 4.17879V9.32463M6.71445 4.17879V2.59546C6.71445 2.28051 6.83298 1.97847 7.04395 1.75577C7.25493 1.53307 7.54108 1.40796 7.83945 1.40796C8.13782 1.40796 8.42397 1.53307 8.63495 1.75577C8.84592 1.97847 8.96445 2.28051 8.96445 2.59546V9.32463M9.29395 3.3391C9.50493 3.1164 9.79108 2.99129 10.0894 2.99129C10.3878 2.99129 10.674 3.1164 10.8849 3.3391C11.0959 3.5618 11.2144 3.86385 11.2144 4.17879V9.32463M11.2144 5.76213C11.2144 5.44718 11.333 5.14514 11.544 4.92244C11.7549 4.69974 12.0411 4.57463 12.3395 4.57463C12.6378 4.57463 12.924 4.69974 13.1349 4.92244C13.3459 5.14514 13.4644 5.44718 13.4644 5.76213V12.4913C13.4644 13.7511 12.9903 14.9593 12.1464 15.8501C11.3025 16.7408 10.1579 17.2413 8.96445 17.2413H7.46445C6.68176 17.1273 5.93776 16.8544 5.2883 16.443C4.63883 16.0317 4.10076 15.4926 3.71445 14.8663L1.68945 10.71C1.49054 10.4213 1.40842 10.0611 1.46117 9.70845C1.51391 9.35585 1.6972 9.0398 1.9707 8.82983C2.2442 8.61987 2.58552 8.53319 2.91957 8.58887C3.25362 8.64454 3.55304 8.83801 3.75195 9.12671L4.42695 10.5121" stroke="#54BBAB" stroke-width="1.03204" stroke-linecap="round" stroke-linejoin="round"/>
</svg>
