<svg width="35" height="34" viewBox="0 0 35 34" fill="none" xmlns="http://www.w3.org/2000/svg">
<path d="M31.5069 5.83094C30.1173 6.51184 28.7555 6.78837 27.3381 7.20664C25.7803 5.44879 23.4708 5.35152 21.2516 6.1825C19.0324 7.01349 17.5789 9.04508 17.6109 11.3754V12.765C13.1016 12.8804 9.08565 10.8266 6.49405 7.20664C6.49405 7.20664 0.682733 17.5355 12.0525 22.4923C9.45112 24.2251 6.85673 25.3937 3.71484 25.2715C8.31165 27.7769 13.3212 28.6385 17.6581 27.3795C22.6329 25.9343 26.7211 22.206 28.2899 16.6212C28.7579 14.9226 28.9903 13.1678 28.9806 11.406C28.9778 11.06 31.0789 7.55404 31.5069 5.82955V5.83094Z" stroke="#76CEFF" stroke-width="2.0844" stroke-linecap="round" stroke-linejoin="round"/>
</svg>
