<svg width="25" height="26" viewBox="0 0 25 26" fill="none" xmlns="http://www.w3.org/2000/svg">
<g clip-path="url(#clip0)">
<path d="M24.9893 12.8873C24.9893 6.00542 19.4117 0.427856 12.5298 0.427856C5.64788 0.427856 0.0703125 6.00542 0.0703125 12.8873C0.0703125 19.7693 5.64788 25.3468 12.5298 25.3468C12.6028 25.3468 12.6758 25.3468 12.7488 25.3419V15.6469H10.072V12.5272H12.7488V10.23C12.7488 7.56772 14.3744 6.11736 16.7495 6.11736C17.8883 6.11736 18.8666 6.2001 19.1489 6.23904V9.02295H17.5136C16.2238 9.02295 15.9707 9.63619 15.9707 10.5366V12.5223H19.0613L18.6573 15.642H15.9707V24.865C21.1784 23.3708 24.9893 18.5768 24.9893 12.8873Z" fill="#54BBAB"/>
</g>
<defs>
<clipPath id="clip0">
<rect width="24.919" height="24.919" fill="white" transform="translate(0.0703125 0.427856)"/>
</clipPath>
</defs>
</svg>
