<svg width="26" height="26" viewBox="0 0 26 26" fill="none" xmlns="http://www.w3.org/2000/svg">
<g clip-path="url(#clip0)">
<path d="M15.7892 12.8868C15.7892 14.2039 14.7215 15.2716 13.4044 15.2716C12.0872 15.2716 11.0195 14.2039 11.0195 12.8868C11.0195 11.5696 12.0872 10.502 13.4044 10.502C14.7215 10.502 15.7892 11.5696 15.7892 12.8868Z" fill="#54BBAB"/>
<path d="M18.9857 8.6672C18.8711 8.35655 18.6882 8.07537 18.4505 7.84457C18.2197 7.60692 17.9387 7.42403 17.6279 7.30939C17.3758 7.21148 16.9971 7.09494 16.2995 7.06319C15.545 7.02878 15.3187 7.02136 13.4084 7.02136C11.498 7.02136 11.2717 7.02859 10.5173 7.063C9.8198 7.09494 9.4409 7.21148 9.189 7.30939C8.87816 7.42403 8.59697 7.60692 8.36636 7.84457C8.12872 8.07537 7.94583 8.35636 7.831 8.6672C7.73309 8.9193 7.61654 9.2982 7.58479 9.99574C7.55038 10.7501 7.54297 10.9764 7.54297 12.8868C7.54297 14.7971 7.55038 15.0234 7.58479 15.7779C7.61654 16.4755 7.73309 16.8542 7.831 17.1063C7.94583 17.4171 8.12853 17.6981 8.36617 17.9289C8.59697 18.1666 8.87797 18.3495 9.18881 18.4641C9.4409 18.5622 9.8198 18.6787 10.5173 18.7105C11.2717 18.7449 11.4978 18.7521 13.4083 18.7521C15.3189 18.7521 15.5452 18.7449 16.2994 18.7105C16.9969 18.6787 17.3758 18.5622 17.6279 18.4641C18.2519 18.2234 18.745 17.7302 18.9857 17.1063C19.0836 16.8542 19.2002 16.4755 19.2321 15.7779C19.2665 15.0234 19.2737 14.7971 19.2737 12.8868C19.2737 10.9764 19.2665 10.7501 19.2321 9.99574C19.2003 9.2982 19.0838 8.9193 18.9857 8.6672ZM13.4084 16.5605C11.3793 16.5605 9.73444 14.9158 9.73444 12.8866C9.73444 10.8575 11.3793 9.21284 13.4084 9.21284C15.4374 9.21284 17.0823 10.8575 17.0823 12.8866C17.0823 14.9158 15.4374 16.5605 13.4084 16.5605ZM17.2275 9.92615C16.7534 9.92615 16.3689 9.54174 16.3689 9.06759C16.3689 8.59344 16.7534 8.20902 17.2275 8.20902C17.7017 8.20902 18.0861 8.59344 18.0861 9.06759C18.0859 9.54174 17.7017 9.92615 17.2275 9.92615Z" fill="#54BBAB"/>
<path d="M13.4048 0.427246C6.52466 0.427246 0.945312 6.0066 0.945312 12.8867C0.945312 19.7669 6.52466 25.3462 13.4048 25.3462C20.2849 25.3462 25.8643 19.7669 25.8643 12.8867C25.8643 6.0066 20.2849 0.427246 13.4048 0.427246ZM20.5161 15.8364C20.4815 16.598 20.3604 17.118 20.1836 17.5731C19.8119 18.5341 19.0522 19.2938 18.0912 19.6655C17.6362 19.8423 17.1161 19.9632 16.3546 19.998C15.5917 20.0328 15.348 20.0412 13.405 20.0412C11.4618 20.0412 11.2183 20.0328 10.4551 19.998C9.69372 19.9632 9.17356 19.8423 8.71861 19.6655C8.24104 19.4859 7.80871 19.2043 7.45129 18.8402C7.08741 18.483 6.80585 18.0505 6.62619 17.5731C6.44938 17.1182 6.32827 16.598 6.29367 15.8366C6.2585 15.0734 6.25033 14.8297 6.25033 12.8867C6.25033 10.9437 6.2585 10.7 6.29348 9.93707C6.32808 9.17546 6.449 8.65549 6.62581 8.20035C6.80547 7.72297 7.08722 7.29045 7.45129 6.93323C7.80852 6.56915 8.24104 6.28759 8.71842 6.10793C9.17356 5.93112 9.69353 5.81021 10.4551 5.77542C11.2181 5.74062 11.4618 5.73226 13.4048 5.73226C15.3478 5.73226 15.5915 5.74062 16.3545 5.77561C17.1161 5.81021 17.636 5.93112 18.0912 6.10774C18.5685 6.2874 19.0011 6.56915 19.3585 6.93323C19.7224 7.29064 20.0041 7.72297 20.1836 8.20035C20.3606 8.65549 20.4815 9.17546 20.5163 9.93707C20.5511 10.7 20.5593 10.9437 20.5593 12.8867C20.5593 14.8297 20.5511 15.0734 20.5161 15.8364Z" fill="#54BBAB"/>
</g>
<defs>
<clipPath id="clip0">
<rect width="24.919" height="24.919" fill="white" transform="translate(0.945312 0.427246)"/>
</clipPath>
</defs>
</svg>
