<svg width="26" height="26" viewBox="0 0 26 26" fill="none" xmlns="http://www.w3.org/2000/svg">
<path d="M13.2837 25.3462C20.1649 25.3462 25.7432 19.7679 25.7432 12.8867C25.7432 6.00555 20.1649 0.427246 13.2837 0.427246C6.40252 0.427246 0.824219 6.00555 0.824219 12.8867C0.824219 19.7679 6.40252 25.3462 13.2837 25.3462Z" fill="#54BBAB"/>
<path d="M20.7319 13.889V19.0258H17.7537V14.2333C17.7537 13.0299 17.3237 12.2081 16.2454 12.2081C15.4225 12.2081 14.9337 12.7614 14.7178 13.2971C14.6394 13.4885 14.6192 13.7544 14.6192 14.0229V19.0255H11.6408C11.6408 19.0255 11.6808 10.9086 11.6408 10.0684H14.6194V11.3377C14.6134 11.3477 14.605 11.3575 14.5996 11.367H14.6194V11.3377C15.0152 10.7287 15.721 9.85807 17.3035 9.85807C19.2629 9.85807 20.7319 11.1383 20.7319 13.889ZM8.52515 5.75073C7.50637 5.75073 6.83984 6.41948 6.83984 7.29812C6.83984 8.1581 7.48705 8.84617 8.48606 8.84617H8.50539C9.54416 8.84617 10.19 8.1581 10.19 7.29812C10.1703 6.41948 9.54416 5.75073 8.52515 5.75073ZM7.01686 19.0258H9.99414V10.0684H7.01686V19.0258Z" fill="white"/>
</svg>
