<?xml version="1.0" encoding="utf-8"?>
<!-- Generator: Adobe Illustrator 24.3.0, SVG Export Plug-In . SVG Version: 6.00 Build 0)  -->
<svg version="1.1" id="Laag_1" xmlns="http://www.w3.org/2000/svg" xmlns:xlink="http://www.w3.org/1999/xlink" x="0px" y="0px"
	 viewBox="0 0 150.3 212.6" style="enable-background:new 0 0 150.3 212.6;" xml:space="preserve">
<style type="text/css">
	.st0{fill:#FFFFFF;}
	.st1{fill:#54BBAB;}
	.st2{fill:#E62336;}
	.st3{fill:#FFED00;}
</style>
<g>
	<g>
		<path class="st0" d="M41.2,70c0,1.2,0,5-5.2,5h-4.1v-29h4.2c4.5,0,5,2.7,5,5V70z M37.9,42.7H26.2v36.1h11.7c6.5,0,9.1-2.2,9.1-7.9
			V50.4C46.9,44.7,44.6,42.7,37.9,42.7"/>
	</g>
	<polygon class="st0" points="105.8,42.7 105.8,122.7 113.8,122.7 113.8,65.5 122.3,65.5 122.3,58.1 113.8,58.1 113.8,50 123.9,50 
		123.9,42.7 	"/>
	<g>
		<path class="st0" d="M65.5,184c0,2.4-0.9,2.9-2.3,2.9c-1.1,0-2.3-0.3-2.3-2.9V18.4h-8.2v165.8c0,6.6,3.4,10.1,10,10.1h1.1
			c6.6,0,10-3.5,10-10.1V67h-8.2V184z"/>
		<path class="st0" d="M39.5,153.7c0.3,2.8-0.5,3.4-2.2,3.6l-1.7,0.2l-8.2-67.1l1.8-0.2c1.7-0.2,2.5,0.2,2.9,3L39.5,153.7z
			 M29.7,83.2l-11.4,1.4l9.9,81l11.4-1.4c6.4-0.8,8.9-4.1,8-10.7l-7.6-62C39.3,84.9,36.2,82.4,29.7,83.2"/>
	</g>
	<polygon class="st0" points="102.1,186.4 107.2,187 112.3,145.9 121.7,147 122.1,143 112.8,141.9 114.2,130.5 127.1,132.1 
		127.5,128.2 109.5,126 	"/>
	<g>
		<path class="st0" d="M84.5,45.7h4.2c4,0,4.6,2.5,4.6,4.6v3.3c0,3.2-1.5,4.8-4.6,4.8h-4.2V45.7z M84.5,61.8h4.2
			c4.6,0,4.6,3.6,4.6,4.8v12h5.1V65.5c0-3.7-2-4.8-3.5-5.3L91.8,59l3.2-0.9c1.3-0.3,3.4-1.5,3.4-5.2v-4.1c0-4.4-2-6.2-7-6.2H79.4v36
			h5.1V61.8z"/>
		<path class="st0" d="M89.6,98.9h-2.1v-9.3h2.1c1.7,0,2.4,0.4,2.4,2.9v3.3C92.1,98.3,91.1,98.9,89.6,98.9 M92.1,108.7v54.2h8.1
			v-55.3c0-2.9-1-5-2.9-6.3c1.4-0.8,2.9-2.6,2.9-6.2V91c0-5.3-2.6-7.9-8.1-7.9H79.4v79.9h8.1v-57.3h2.1
			C91.2,105.7,92.1,106.2,92.1,108.7"/>
		<path class="st0" d="M129.9,109.7v2.7c-0.5,0-1.1-0.2-2.7-1.7c-0.6-0.5-1.1-1-1.7-1.5c-1.2-1-2.1-1.5-3.6-1.5h-0.2
			c-1.8,0-2.9,0.8-2.9,3.1v0.4c0,2.2,1.3,2.8,2.8,2.8h1.9v-2.2h-1.7c-0.8,0-1.1-0.2-1.1-0.9c0-0.7,0.3-0.9,1.1-0.9h0.2
			c1,0,1.4,0.2,2.4,1l1.8,1.4c2,1.5,3.1,1.9,4.7,1.9h1v-6.9h-4.3v2.2H129.9z"/>
		<path class="st0" d="M128.6,100.8c0.9,0,1.4,0.3,1.4,1c0,0.8-0.5,1.1-1.4,1.1h-6.5c-1,0-1.4-0.4-1.4-1c0-0.7,0.4-1.1,1.4-1.1
			H128.6z M118.7,101.7v0.4c0,2.2,1.2,3.2,3.4,3.2h6.5c2.3,0,3.4-1,3.4-3.2v-0.4c0-2.1-1.1-3.2-3.4-3.2h-6.5
			C119.9,98.5,118.7,99.4,118.7,101.7"/>
		<path class="st0" d="M124.7,91.1c-0.2-0.5-0.8-1.1-2.1-1.1h-1.1c-1.9,0-2.8,0.7-2.8,3.1v0.2c0,2.3,1.1,2.9,2.8,2.9h1.3V94h-1.1
			c-0.7,0-1-0.2-1-0.8c0-0.7,0.4-0.9,1-0.9h1.4c0.7,0,0.9,0.2,0.9,0.8v1.3h2V93c0-0.6,0.2-0.8,0.8-0.8h2.2c0.7,0,1.1,0.3,1.1,0.9
			c0,0.7-0.4,0.9-1.1,0.9h-1.8v2.2h2c1.7,0,2.9-0.6,2.9-3v-0.4c0-2.1-1.2-3.1-3-3.1h-2.5C125.3,89.8,124.9,90.5,124.7,91.1"/>
		<path class="st0" d="M128.6,83c0.9,0,1.4,0.3,1.4,1c0,0.8-0.5,1.1-1.4,1.1h-6.5c-1,0-1.4-0.4-1.4-1c0-0.7,0.4-1.1,1.4-1.1H128.6z
			 M118.7,83.9v0.4c0,2.2,1.2,3.2,3.4,3.2h6.5c2.3,0,3.4-1,3.4-3.2v-0.4c0-2.1-1.1-3.2-3.4-3.2h-6.5
			C119.9,80.7,118.7,81.6,118.7,83.9"/>
	</g>
</g>
</svg>
