<svg id="Laag_1" data-name="Laag 1" xmlns="http://www.w3.org/2000/svg" viewBox="0 0 150.3 212.6"><defs><style>.cls-1{fill:#54bbab;}.cls-2{fill:#e62336;}.cls-3{fill:#0c1424;}</style></defs><path class="cls-1" d="M41.17,70c0,1.25,0,5-5.15,5H31.9v-29h4.24c4.46,0,5,2.69,5,5ZM37.86,42.67H26.2V78.75H37.86c6.54,0,9.08-2.22,9.08-7.94V50.41c0-5.71-2.37-7.74-9.08-7.74"/><polygon class="cls-2" points="105.77 42.67 105.77 122.66 113.8 122.66 113.8 65.52 122.25 65.52 122.25 58.05 113.8 58.05 113.8 49.99 123.89 49.99 123.89 42.67 105.77 42.67"/><path class="cls-2" d="M65.47,184.05c0,2.37-.94,2.86-2.34,2.86-1.07,0-2.29-.33-2.29-2.86V18.38H52.61V184.15c0,6.59,3.44,10.07,10,10.07h1.13c6.55,0,10-3.48,10-10.07V67H65.47Z"/><path class="cls-2" d="M39.46,153.68c.33,2.76-.54,3.41-2.17,3.61l-1.72.21L27.33,90.37l1.82-.23c1.67-.2,2.53.2,2.87,3ZM29.74,83.22l-11.36,1.4,10,81,11.36-1.39c6.38-.79,8.86-4.09,8-10.72l-7.61-62c-.81-6.57-3.91-9-10.38-8.24"/><polygon class="cls-1" points="102.13 186.39 107.24 187.02 112.29 145.89 121.66 147.04 122.15 143.03 112.78 141.88 114.18 130.48 127.06 132.06 127.54 128.2 109.54 125.99 102.13 186.39"/><path class="cls-1" d="M84.54,45.73h4.22c4,0,4.56,2.47,4.56,4.62v3.28c0,3.19-1.53,4.81-4.56,4.81H84.54Zm0,16.09h4.22c4.56,0,4.56,3.59,4.56,4.77v12h5.12V65.47c0-3.7-2-4.82-3.49-5.35L91.84,59,95,58.18c1.28-.35,3.41-1.47,3.41-5.17V48.86c0-4.4-2-6.2-7-6.2h-12v36h5.13Z"/><path class="cls-2" d="M89.63,98.86H87.49V89.57h2.14c1.69,0,2.44.42,2.44,2.91v3.28c0,2.58-.93,3.1-2.44,3.1m2.44,9.87V163h8.08V107.6c0-2.92-1-5-2.94-6.27,1.37-.84,2.94-2.59,2.94-6.19V91c0-5.32-2.63-7.91-8.06-7.91H79.41V163h8.08V105.66h2.14c1.58,0,2.44.49,2.44,3.07"/><path class="cls-3" d="M130,109.65v2.67c-.48,0-1.11-.21-2.74-1.7-.56-.51-1.09-1-1.71-1.49a5,5,0,0,0-3.63-1.48h-.21c-1.83,0-2.93.83-2.93,3.15v.35c0,2.19,1.26,2.84,2.77,2.84h1.88V111.8h-1.67c-.75,0-1.09-.23-1.09-.88s.34-.9,1.09-.9H122a3.43,3.43,0,0,1,2.42,1l1.84,1.4c2,1.55,3.09,2,4.71,2h1v-6.92h-4.28v2.21Z"/><path class="cls-3" d="M128.65,100.82c.89,0,1.37.32,1.37,1s-.48,1-1.37,1h-6.52c-1,0-1.39-.35-1.39-1s.41-1.05,1.39-1.05Zm-9.94.84v.42c0,2.2,1.17,3.18,3.4,3.18h6.54c2.3,0,3.42-1,3.42-3.21v-.4c0-2.13-1.14-3.18-3.42-3.18h-6.54c-2.23,0-3.4.94-3.4,3.19"/><path class="cls-3" d="M124.71,91.09A2.07,2.07,0,0,0,122.59,90H121.5c-1.86,0-2.78.73-2.78,3v.21c0,2.3,1.15,2.86,2.78,2.86h1.28V94h-1.12c-.69,0-1-.21-1-.84s.35-.86,1-.86H123c.68,0,.88.19.88.82v1.28h2V93c0-.63.22-.81.85-.81H129c.71,0,1.09.27,1.09.9s-.38.95-1.09.95h-1.79V96.2h2c1.68,0,2.91-.63,2.91-3v-.36a2.71,2.71,0,0,0-3-3.06h-2.54a1.72,1.72,0,0,0-1.85,1.3"/><path class="cls-3" d="M128.65,83c.89,0,1.37.32,1.37,1s-.48,1-1.37,1h-6.52c-1,0-1.39-.35-1.39-1s.41-1.06,1.39-1.06Zm-9.94.85v.42c0,2.19,1.17,3.18,3.4,3.18h6.54c2.3,0,3.42-1,3.42-3.22v-.4q0-3.18-3.42-3.18h-6.54c-2.23,0-3.4,1-3.4,3.2"/></svg>