<svg width="31" height="30" viewBox="0 0 31 30" fill="none" xmlns="http://www.w3.org/2000/svg">
<path d="M9.482 8.77016C10.8226 8.77016 11.9093 7.68341 11.9093 6.34284C11.9093 5.00227 10.8226 3.91553 9.482 3.91553C8.14143 3.91553 7.05469 5.00227 7.05469 6.34284C7.05469 7.68341 8.14143 8.77016 9.482 8.77016Z" stroke="#E62336" stroke-width="1.82049" stroke-linecap="round" stroke-linejoin="round"/>
<path d="M7.05545 26.9747V20.9065L5.8418 19.6928V14.8382C5.8418 14.5163 5.96966 14.2076 6.19727 13.98C6.42487 13.7524 6.73357 13.6245 7.05545 13.6245H11.9101C12.232 13.6245 12.5407 13.7524 12.7683 13.98C12.9959 14.2076 13.1237 14.5163 13.1237 14.8382V19.6928L11.9101 20.9065V26.9747" stroke="#E62336" stroke-width="1.82049" stroke-linecap="round" stroke-linejoin="round"/>
<path d="M21.6187 8.77016C22.9593 8.77016 24.046 7.68341 24.046 6.34284C24.046 5.00227 22.9593 3.91553 21.6187 3.91553C20.2782 3.91553 19.1914 5.00227 19.1914 6.34284C19.1914 7.68341 20.2782 8.77016 21.6187 8.77016Z" stroke="#E62336" stroke-width="1.82049" stroke-linecap="round" stroke-linejoin="round"/>
<path d="M19.191 26.9747V22.1201H16.7637L19.191 14.8382C19.191 14.5163 19.3189 14.2076 19.5465 13.98C19.7741 13.7524 20.0828 13.6245 20.4046 13.6245H22.832C23.1538 13.6245 23.4625 13.7524 23.6901 13.98C23.9177 14.2076 24.0456 14.5163 24.0456 14.8382L26.4729 22.1201H24.0456V26.9747" stroke="#E62336" stroke-width="1.82049" stroke-linecap="round" stroke-linejoin="round"/>
</svg>
