<svg width="27" height="27" viewBox="0 0 27 27" fill="none" xmlns="http://www.w3.org/2000/svg">
<path d="M4.18164 23.6623V19.3289C4.18164 18.4719 4.43579 17.6341 4.91194 16.9215C5.38809 16.2089 6.06487 15.6534 6.85668 15.3255C7.64849 14.9975 8.51978 14.9117 9.36037 15.0789C10.2009 15.2461 10.9731 15.6588 11.5791 16.2648C12.1851 16.8708 12.5978 17.643 12.765 18.4835C12.9322 19.3241 12.8464 20.1954 12.5185 20.9872C12.1905 21.779 11.6351 22.4558 10.9224 22.932C10.2098 23.4081 9.37203 23.6623 8.51497 23.6623H4.18164Z" stroke="#E62336" stroke-width="1.63679" stroke-linecap="round" stroke-linejoin="round"/>
<path d="M23.6792 4.1626C20.5871 4.58553 17.6666 5.83542 15.226 7.78033C12.7853 9.72523 10.915 12.293 9.8125 15.2126" stroke="#E62336" stroke-width="1.63679" stroke-linecap="round" stroke-linejoin="round"/>
<path d="M23.6809 4.1626C23.2579 7.25463 22.008 10.1751 20.0631 12.6158C18.1182 15.0565 15.5505 16.9268 12.6309 18.0293" stroke="#E62336" stroke-width="1.63679" stroke-linecap="round" stroke-linejoin="round"/>
<path d="M12.4141 10.6626C14.5192 11.6342 16.2091 13.3242 17.1807 15.4293" stroke="#E62336" stroke-width="1.63679" stroke-linecap="round" stroke-linejoin="round"/>
</svg>
