<svg width="30" height="30" viewBox="0 0 30 30" fill="none" xmlns="http://www.w3.org/2000/svg">
<path d="M8.49525 13.6245V23.3338C8.49525 23.6556 8.36739 23.9643 8.13978 24.192C7.91218 24.4196 7.60348 24.5474 7.2816 24.5474H4.85428C4.5324 24.5474 4.2237 24.4196 3.9961 24.192C3.76849 23.9643 3.64063 23.6556 3.64062 23.3338V14.8382C3.64062 14.5163 3.76849 14.2076 3.9961 13.98C4.2237 13.7524 4.5324 13.6245 4.85428 13.6245H8.49525ZM8.49525 13.6245C9.78278 13.6245 11.0176 13.113 11.928 12.2026C12.8384 11.2922 13.3499 10.0574 13.3499 8.76988V7.55622C13.3499 6.91246 13.6056 6.29506 14.0608 5.83985C14.516 5.38464 15.1334 5.12891 15.7772 5.12891C16.421 5.12891 17.0384 5.38464 17.4936 5.83985C17.9488 6.29506 18.2045 6.91246 18.2045 7.55622V13.6245H21.8455C22.4892 13.6245 23.1066 13.8802 23.5619 14.3355C24.0171 14.7907 24.2728 15.4081 24.2728 16.0518L23.0591 22.1201C22.8846 22.8647 22.5535 23.504 22.1157 23.9418C21.6779 24.3796 21.1571 24.5921 20.6318 24.5474H12.1362C11.1706 24.5474 10.2445 24.1638 9.56167 23.481C8.87885 22.7982 8.49525 21.8721 8.49525 20.9065" stroke="#54BBAB" stroke-width="1.82049" stroke-linecap="round" stroke-linejoin="round"/>
</svg>
