<svg width="27" height="27" viewBox="0 0 27 27" fill="none" xmlns="http://www.w3.org/2000/svg">
<path d="M14.1548 18.2318L20.3158 20.0799M6.23242 5.99658L8.08059 12.1553L6.23242 5.99658Z" stroke="#54BBAB" stroke-width="1.63679" stroke-linecap="round" stroke-linejoin="round"/>
<path d="M12.9316 13.3817L20.3167 5.99658" stroke="#54BBAB" stroke-width="1.63679" stroke-linecap="round" stroke-linejoin="round"/>
<path d="M6.23242 7.62158C7.12988 7.62158 7.85742 6.89405 7.85742 5.99658C7.85742 5.09912 7.12988 4.37158 6.23242 4.37158C5.33496 4.37158 4.60742 5.09912 4.60742 5.99658C4.60742 6.89405 5.33496 7.62158 6.23242 7.62158Z" stroke="#54BBAB" stroke-width="1.63679" stroke-linecap="round" stroke-linejoin="round"/>
<path d="M20.3164 7.62158C21.2139 7.62158 21.9414 6.89405 21.9414 5.99658C21.9414 5.09912 21.2139 4.37158 20.3164 4.37158C19.4189 4.37158 18.6914 5.09912 18.6914 5.99658C18.6914 6.89405 19.4189 7.62158 20.3164 7.62158Z" stroke="#54BBAB" stroke-width="1.63679" stroke-linecap="round" stroke-linejoin="round"/>
<path d="M20.3164 21.7046C21.2139 21.7046 21.9414 20.9771 21.9414 20.0796C21.9414 19.1821 21.2139 18.4546 20.3164 18.4546C19.4189 18.4546 18.6914 19.1821 18.6914 20.0796C18.6914 20.9771 19.4189 21.7046 20.3164 21.7046Z" stroke="#54BBAB" stroke-width="1.63679" stroke-linecap="round" stroke-linejoin="round"/>
<path d="M9.48242 21.7046C12.1748 21.7046 14.3574 19.522 14.3574 16.8296C14.3574 14.1372 12.1748 11.9546 9.48242 11.9546C6.79003 11.9546 4.60742 14.1372 4.60742 16.8296C4.60742 19.522 6.79003 21.7046 9.48242 21.7046Z" stroke="#54BBAB" stroke-width="1.63679" stroke-linecap="round" stroke-linejoin="round"/>
</svg>
