<svg width="27" height="27" viewBox="0 0 27 27" fill="none" xmlns="http://www.w3.org/2000/svg">
<path d="M13.5163 16.0238C14.7129 16.0238 15.6829 15.0537 15.6829 13.8571C15.6829 12.6605 14.7129 11.6904 13.5163 11.6904C12.3197 11.6904 11.3496 12.6605 11.3496 13.8571C11.3496 15.0537 12.3197 16.0238 13.5163 16.0238Z" stroke="#FFED00" stroke-width="1.61608" stroke-linecap="round" stroke-linejoin="round"/>
<path d="M13.515 21.4401C9.18164 21.4401 5.57089 18.9127 2.68164 13.8568C5.57089 8.80085 9.18164 6.27344 13.515 6.27344C17.8483 6.27344 21.4591 8.80085 24.3483 13.8568C23.8933 14.6541 23.4188 15.3886 22.9281 16.0592" stroke="#FFED00" stroke-width="1.61608" stroke-linecap="round" stroke-linejoin="round"/>
<path d="M16.7656 21.4401L18.9323 23.6068L23.2656 19.2734" stroke="#FFED00" stroke-width="1.61608" stroke-linecap="round" stroke-linejoin="round"/>
</svg>
