<svg width="30" height="29" viewBox="0 0 30 29" fill="none" xmlns="http://www.w3.org/2000/svg">
<path d="M24.7142 13.05C24.4241 10.9622 23.4555 9.02781 21.9578 7.54467C20.4601 6.06152 18.5164 5.11195 16.4259 4.84221C14.3354 4.57247 12.2142 4.99754 10.3891 6.05193C8.564 7.10633 7.13618 8.73155 6.3256 10.6773M5.73242 5.93182V10.6773H10.4779" stroke="#FFED00" stroke-width="1.77954" stroke-linecap="round" stroke-linejoin="round"/>
<path d="M5.73242 15.4229C6.02256 17.5106 6.99107 19.445 8.48877 20.9282C9.98646 22.4113 11.9303 23.3609 14.0207 23.6306C16.1112 23.9004 18.2324 23.4753 20.0575 22.4209C21.8826 21.3665 23.3104 19.7413 24.121 17.7956M24.7142 22.541V17.7956H19.9688" stroke="#FFED00" stroke-width="1.77954" stroke-linecap="round" stroke-linejoin="round"/>
</svg>
