<svg width="27" height="27" viewBox="0 0 27 27" fill="none" xmlns="http://www.w3.org/2000/svg">
<path d="M17.3853 17.8653L19.0872 22.9722M8.25391 22.9722L12.5872 9.97217L8.25391 22.9722ZM14.7539 9.97217L16.3572 14.7811L14.7539 9.97217Z" stroke="#54BBAB" stroke-width="1.61608" stroke-linecap="round" stroke-linejoin="round"/>
<path d="M13.6706 9.97201C14.8672 9.97201 15.8372 9.00196 15.8372 7.80534C15.8372 6.60872 14.8672 5.63867 13.6706 5.63867C12.474 5.63867 11.5039 6.60872 11.5039 7.80534C11.5039 9.00196 12.474 9.97201 13.6706 9.97201Z" stroke="#54BBAB" stroke-width="1.61608" stroke-linecap="round" stroke-linejoin="round"/>
<path d="M5.00391 13.2222C6.65707 16.4234 9.97424 18.6388 13.6706 18.6388C17.3647 18.6388 20.683 16.4202 22.3372 13.2222" stroke="#54BBAB" stroke-width="1.61608" stroke-linecap="round" stroke-linejoin="round"/>
<path d="M13.6699 5.63883V3.47217" stroke="#54BBAB" stroke-width="1.61608" stroke-linecap="round" stroke-linejoin="round"/>
</svg>
