<svg width="27" height="27" viewBox="0 0 27 27" fill="none" xmlns="http://www.w3.org/2000/svg">
<path d="M13.8477 23.208C19.2324 23.208 23.5977 18.8428 23.5977 13.458C23.5977 8.07323 19.2324 3.70801 13.8477 3.70801C8.46288 3.70801 4.09766 8.07323 4.09766 13.458C4.09766 18.8428 8.46288 23.208 13.8477 23.208Z" stroke="#FFED00" stroke-width="1.63679" stroke-linecap="round" stroke-linejoin="round"/>
<path d="M10.5977 10.208H10.6077" stroke="#FFED00" stroke-width="1.63679" stroke-linecap="round" stroke-linejoin="round"/>
<path d="M17.0977 10.208H17.1077" stroke="#FFED00" stroke-width="1.63679" stroke-linecap="round" stroke-linejoin="round"/>
<path d="M18.1803 14.541H9.51367M9.51367 14.541C9.51367 15.6903 9.97022 16.7925 10.7829 17.6051C11.5955 18.4178 12.6977 18.8743 13.847 18.8743C14.9963 18.8743 16.0985 18.4178 16.9111 17.6051C17.7238 16.7925 18.1803 15.6903 18.1803 14.541H9.51367Z" stroke="#FFED00" stroke-width="1.63679" stroke-linecap="round" stroke-linejoin="round"/>
</svg>
